#define 0000_width 32
#define 0000_height 32
static char 0000_bits[] = {
  0x00, 0x00, 0x00, 0x00, 0x00, 0x00, 0x00, 0x00, 0x00, 0x00, 0x00, 0x00, 
  0x00, 0xF0, 0x0F, 0x00, 0x00, 0xFE, 0x7F, 0x00, 0x00, 0x7F, 0xFE, 0x00, 
  0x80, 0x07, 0xE0, 0x01, 0x80, 0x01, 0x80, 0x03, 0x00, 0x00, 0x00, 0x07, 
  0x00, 0x00, 0x00, 0x0E, 0x00, 0x00, 0x00, 0x0E, 0x00, 0x00, 0x00, 0x0C, 
  0x30, 0x00, 0x00, 0x1C, 0x38, 0x00, 0x00, 0x1C, 0x3C, 0x00, 0x00, 0x1C, 
  0xFE, 0xFF, 0x00, 0x18, 0xFE, 0xFF, 0x00, 0x18, 0x3C, 0x00, 0x00, 0x1C, 
  0x38, 0x00, 0x00, 0x1C, 0x30, 0x00, 0x00, 0x1C, 0x00, 0x00, 0x00, 0x0C, 
  0x00, 0x00, 0x00, 0x0E, 0x00, 0x00, 0x00, 0x0E, 0x00, 0x00, 0x00, 0x07, 
  0x80, 0x01, 0x80, 0x03, 0x80, 0x07, 0xE0, 0x01, 0x00, 0x7F, 0xFE, 0x00, 
  0x00, 0xFE, 0x7F, 0x00, 0x00, 0xF0, 0x0F, 0x00, 0x00, 0x00, 0x00, 0x00, 
  0x00, 0x00, 0x00, 0x00, 0x00, 0x00, 0x00, 0x00, };
